<?xml version="1.0" encoding="UTF-8"?>
<svg width="118px" height="175px" viewBox="0 0 118 175" version="1.1" xmlns="http://www.w3.org/2000/svg" xmlns:xlink="http://www.w3.org/1999/xlink">
    <!-- Generator: Sketch 63.1 (92452) - https://sketch.com -->
    <title>Pink - Cropped</title>
    <desc>Created with Sketch.</desc>
    <defs>
        <path d="M39.1040523,0.77081314 C41.5005263,1.93965164 42.534646,4.78209137 41.485443,7.20428856 L41.3731469,7.4458364 L22.7731346,44.832881 C22.4610522,45.4601837 22.081879,46.0408578 21.6466604,46.5677969 C22.15201,47.8583465 21.6204799,49.3506063 20.3672745,50.0169475 L12.5971816,54.1483791 C11.2471084,54.8662258 9.57072809,54.3537049 8.85288144,53.0036317 C8.53275602,52.4015634 8.45731812,51.7346012 8.59172971,51.1166952 L3.20210284,51.9698418 C1.69187554,52.2090383 0.273687343,51.1786642 0.0344908375,49.6684369 C-0.204705668,48.1582096 0.825668372,46.7400214 2.33589567,46.5008249 L11.7502639,45.009149 L32.3953844,3.06722457 C33.6173774,0.584607862 36.6170301,-0.44218863 39.1040523,0.77081314 Z" id="path-1"></path>
        <path d="M3.61589278,0.77081314 C1.21941871,1.93965164 0.185299039,4.78209137 1.23450199,7.20428856 L1.34679813,7.4458364 L19.9468104,44.832881 C20.2588928,45.4601837 20.6380661,46.0408578 21.0732846,46.5677969 C20.567935,47.8583465 21.0994651,49.3506063 22.3526706,50.0169475 L30.1227635,54.1483791 C31.4728367,54.8662258 33.1492169,54.3537049 33.8670636,53.0036317 C34.187189,52.4015634 34.2626269,51.7346012 34.1282153,51.1166952 L39.5178422,51.9698418 C41.0280695,52.2090383 42.4462577,51.1786642 42.6854542,49.6684369 C42.9246507,48.1582096 41.8942767,46.7400214 40.3840494,46.5008249 L30.9696811,45.009149 L10.3245606,3.06722457 C9.10256762,0.584607862 6.10291497,-0.44218863 3.61589278,0.77081314 Z" id="path-3"></path>
        <path d="M36.7497934,0 C57.0461438,0 73.4995867,16.4534429 73.4995867,36.7497934 L73.4995867,40.7049281 C73.4995867,61.0012785 57.0461438,77.4547215 36.7497934,77.4547215 C16.4534429,77.4547215 0,61.0012785 0,40.7049281 L0,36.7497934 C0,16.4534429 16.4534429,0 36.7497934,0 Z" id="path-5"></path>
        <path d="M29.2515171,0 C45.406684,-2.967656e-15 58.5030343,13.0963503 58.5030343,29.2515171 C58.5030343,45.406684 45.406684,58.5030343 29.2515171,58.5030343 C13.0963503,58.5030343 1.97843733e-15,45.406684 0,29.2515171 C-1.97843733e-15,13.0963503 13.0963503,2.967656e-15 29.2515171,0 Z" id="path-7"></path>
    </defs>
    <g id="Pink---Cropped" stroke="none" stroke-width="1" fill="none" fill-rule="evenodd">
        <g id="Group-18" transform="translate(13.000000, 22.000000)">
            <g id="Rectangle" transform="translate(0.047147, 85.888669)">
                <mask id="mask-2" fill="white">
                    <use xlink:href="#path-1"></use>
                </mask>
                <use id="Mask" fill="#D88669" xlink:href="#path-1"></use>
                <polygon fill="#1CB0F6" mask="url(#mask-2)" points="31.8374477 -4.99866894 49.8133287 3.768754 27.8947713 48.7084563 9.9188904 39.9410334"></polygon>
            </g>
            <g id="Rectangle-Copy-2" transform="translate(48.965920, 85.888669)">
                <mask id="mask-4" fill="white">
                    <use xlink:href="#path-3"></use>
                </mask>
                <use id="Mask" fill="#D88669" xlink:href="#path-3"></use>
                <polygon fill="#1CB0F6" mask="url(#mask-4)" points="-9 3.76742294 8.97588093 -5 30.8944383 39.9397023 12.9185573 48.7071253"></polygon>
            </g>
            <ellipse id="hips" fill="#FFB7E3" cx="45.7250561" cy="119.313231" rx="23.8132069" ry="23.7308083"></ellipse>
            <rect id="Rectangle" fill="#FFB7E3" x="26.1965784" y="121.290798" width="39.2217526" height="57.8438452" rx="4.77912111"></rect>
            <path d="M45.4526563,125.227266 C46.0805781,125.227266 46.5896094,125.736297 46.5896094,126.364219 L46.5896094,179.151328 L46.5896094,179.151328 L44.3157031,179.151328 L44.3157031,126.364219 C44.3157031,125.736297 44.8247344,125.227266 45.4526563,125.227266 Z" id="Rectangle" fill="#FFA1DA"></path>
            <rect id="Rectangle" fill="#FFA1DA" x="41.5545312" y="124.090313" width="7.47140625" height="2.27390625" rx="1.13695313"></rect>
            <path d="M51.9219365,71.9145777 L60.9824548,90.3480459 C62.5080956,93.4519359 61.2286719,97.2049121 58.1247819,98.730553 C57.2652045,99.1530571 56.320166,99.3727597 55.3623648,99.3727597 L37.2413283,99.3727597 C33.7827574,99.3727597 30.9790317,96.569034 30.9790317,93.110463 C30.9790317,92.1526619 31.1987342,91.2076233 31.6212383,90.3480459 L40.6817566,71.9145777 C42.2073975,68.8106878 45.9603737,67.531264 49.0642636,69.0569049 C50.306457,69.6674745 51.3113669,70.6723844 51.9219365,71.9145777 Z" id="Mask" fill="#1CB0F6"></path>
            <rect id="Rectangle" fill="#FF86D0" x="32.7884696" y="95.2528277" width="26.0379702" height="4.28472927"></rect>
            <path d="M58.9242578,72.8403976 L54.3702412,72.8403976 C52.8229858,72.8403976 51.5686874,74.094696 51.5686874,75.6419514 C51.5686874,75.7856618 51.5797452,75.9291591 51.6017628,76.0711728 L54.0290096,91.7269144 C54.2406714,93.0921332 55.4159587,94.0992467 56.7974879,94.0992467 L63.7787513,94.0992467 C65.3260067,94.0992467 66.5803051,92.8449484 66.5803051,91.297693 C66.5803051,91.0163759 66.5379339,90.7366633 66.4546172,90.4679671 L61.6001237,74.8122255 C61.2365374,73.6396597 60.1519,72.8403976 58.9242578,72.8403976 Z" id="Rectangle-Copy-3" fill="#FFB7E3"></path>
            <rect id="Rectangle-Copy-31" fill="#FFB7E3" x="32.9532669" y="72.8403976" width="26.6971593" height="10.3822286" rx="5.19111431"></rect>
            <g id="Path-2" transform="translate(9.140060, 0.000000)">
                <mask id="mask-6" fill="white">
                    <use xlink:href="#path-5"></use>
                </mask>
                <use id="Mask" fill="#FFB7E3" xlink:href="#path-5"></use>
                <path d="M62.4900139,48.1189416 C56.8356545,59.8852059 44.0512958,73.7389768 15.3484423,71.6059753" id="Path" stroke="#FF9BD8" stroke-width="3.46074287" stroke-linecap="round" stroke-linejoin="round" mask="url(#mask-6)"></path>
            </g>
            <g id="Path-11-+-Rectangle-Mask" transform="translate(16.687776, 8.388182)">
                <mask id="mask-8" fill="white">
                    <use xlink:href="#path-7"></use>
                </mask>
                <use id="Mask" fill="#E18E70" xlink:href="#path-7"></use>
                <path d="M31.3808128,25.4205875 C29.1037975,28.3449685 29.6292765,32.5596617 32.554503,34.8343683 C34.482776,36.3338267 36.97247,36.6160097 39.0977506,35.7965389 L39.0881934,35.8268159 L39.2655252,35.7283428 L39.2655252,35.7283428 C39.7020032,35.5473814 40.1227957,35.3176112 40.5184872,35.0414268 L41.6216229,34.4489965 C42.6970895,33.8782277 43.6895715,33.3724009 44.5992711,32.9311378 C45.074145,32.769094 45.5247372,32.5540446 45.944462,32.2940756 C46.1025154,32.2120396 46.2297325,32.1269316 46.3264296,32.0385322 C48.0346082,30.8120246 49.1415379,28.8043098 49.1271754,26.5427759 C49.1032755,22.8379592 46.0789705,19.8549174 42.3720602,19.879809 C37.9676866,19.9097266 34.1379874,21.8795355 31.3808128,25.4205875 Z" id="Path" fill="#FFFFFF" fill-rule="nonzero" mask="url(#mask-8)"></path>
                <path d="M37.1947458,23.2528959 C39.6521514,23.2528959 41.6442723,25.2450168 41.6442723,27.7024225 L41.6442723,29.8447871 C41.6442723,32.3021928 39.6521514,34.2943137 37.1947458,34.2943137 C34.7373401,34.2943137 32.7452192,32.3021928 32.7452192,29.8447871 L32.7452192,27.7024225 C32.7452192,27.6155908 32.7477065,27.52934 32.7526136,27.4437375 C32.8415027,27.4546165 32.931789,27.4591759 33.0231372,27.4591759 C34.5109072,27.4591759 35.716983,26.2497386 35.716983,24.757822 C35.716983,24.3453931 35.6248143,23.9545514 35.4600051,23.6048796 C35.9923821,23.3779873 36.5789556,23.2528959 37.1947458,23.2528959 Z" id="Path" fill="#3D3D3D" mask="url(#mask-8)"></path>
                <path d="M27.6166134,25.4205875 C29.8936286,28.3449685 29.3681496,32.5596617 26.4429232,34.8343683 C24.5146501,36.3338267 22.0249562,36.6160097 19.8996756,35.7965389 L19.9092327,35.8268159 L19.7319009,35.7283428 L19.7319009,35.7283428 C19.295423,35.5473814 18.8746305,35.3176112 18.4789389,35.0414268 L17.3758033,34.4489965 C16.3003366,33.8782277 15.3078546,33.3724009 14.398155,32.9311378 C13.9232812,32.769094 13.4726889,32.5540446 13.0529642,32.2940756 C12.8949108,32.2120396 12.7676936,32.1269316 12.6709966,32.0385322 C10.9628179,30.8120246 9.85588827,28.8043098 9.87025072,26.5427759 C9.89415061,22.8379592 12.9184556,19.8549174 16.6253659,19.879809 C21.0297396,19.9097266 24.8594387,21.8795355 27.6166134,25.4205875 Z" id="Path" fill="#FFFFFF" fill-rule="nonzero" mask="url(#mask-8)"></path>
                <path d="M22.033396,23.2528959 C24.4205901,23.2528959 26.3687073,25.1328076 26.4780795,27.4929628 L26.4829226,27.7024225 L26.4829226,29.8447871 C26.4829226,32.3021928 24.4908017,34.2943137 22.033396,34.2943137 C19.646202,34.2943137 17.6980848,32.414402 17.5887125,30.0542468 L17.5838695,29.8447871 L17.5838695,27.7024225 C17.5838695,27.4813084 17.599998,27.2639613 17.6311428,27.0514935 C18.0437025,27.3103581 18.530922,27.4591759 19.0528031,27.4591759 C20.5405731,27.4591759 21.7466489,26.2497386 21.7466489,24.757822 C21.7466489,24.2245632 21.5925635,23.7273933 21.3266042,23.3086415 C21.556508,23.2720044 21.7927205,23.2528959 22.033396,23.2528959 Z" id="Path" fill="#3D3D3D" mask="url(#mask-8)"></path>
                <path d="M51.2255929,0.346074056 C46.9580295,0.346074056 35.8494224,23.5099797 5.58456757,22.4783492 C3.4175884,22.4044839 0.516538541,21.3471205 -0.329594559,20.6547638 C-3.62649358,17.9570438 3.56182588,18.8188459 3.70414595,10.1714718 C3.75182696,7.27437153 4.75103267,3.99923895 6.70176309,0.346074056 C17.7506248,-2.94987154 25.3666911,-4.59784434 29.5499618,-4.59784434 C46.0619766,-4.59784434 53.287187,0.346074056 51.2255929,0.346074056 Z" id="Path-11" fill="#3D3D3D" mask="url(#mask-8)"></path>
            </g>
            <path d="M10.5162342,21.1066258 L29.1843293,20.9292545 C30.17533,20.930447 30.8791384,21.898519 30.5742853,22.8411065 C29.1095748,27.3699049 24.8360968,30.4933662 19.9514075,30.4874967 C15.0667182,30.4816107 10.7857528,27.3478559 9.31019969,22.8155195 C9.00308997,21.8721956 9.5252335,21.1054333 10.5162342,21.1066258 Z" id="Combined-Shape-Copy-69" fill="#3D3D3D" fill-rule="nonzero" transform="translate(19.934282, 25.708376) rotate(-345.000000) translate(-19.934282, -25.708376) "></path>
            <path d="M15.077923,19.6415831 C21.2872512,21.1427728 24.0707972,17.7764947 26.9332726,15.445238 C28.8415896,13.8910669 31.1229165,15.2898486 33.7772533,19.6415831 L26.2885226,25.2139838 L16.0044533,23.2708167 C11.2472143,19.8505345 10.9383708,18.64079 15.077923,19.6415831 Z" id="Path-48-Copy-11" fill="#3D3D3D"></path>
            <path d="M25.1218556,39.6066494 C25.1218556,39.6066494 38.7972058,39.6141492 44.8975291,50.4832699" id="Path-47" stroke="#E18E70" stroke-width="5.10871567" transform="translate(35.009692, 45.044960) rotate(-6.000000) translate(-35.009692, -45.044960) "></path>
            <path d="M48.358272,39.6066494 C48.358272,39.6066494 62.0336222,39.6141492 68.1339456,50.4832699" id="Path-47" stroke="#E18E70" stroke-width="5.10871567" transform="translate(58.246109, 45.044960) scale(-1, 1) rotate(-6.000000) translate(-58.246109, -45.044960) "></path>
            <path d="M46.1370493,49.1095893 C47.6843047,49.1095893 48.938603,47.8706287 48.938603,46.3422934 C48.938603,44.813958 46.1370493,41.1993199 46.1370493,41.1993199 C46.1370493,41.1993199 43.3354955,44.813958 43.3354955,46.3422934 C43.3354955,47.8706287 44.5897939,49.1095893 46.1370493,49.1095893 Z" id="Oval-Copy-43" fill="#9E4D31"></path>
            <path d="M50.4217786,50.2631703 C47.3734974,54.6577644 44.5170112,54.6577644 41.85232,50.2631703" id="Path-13" stroke="#9E4D31" stroke-width="1.99404713" stroke-linecap="round"></path>
            <rect id="Rectangle" fill="#FFB7E3" x="37.5675907" y="95.2528277" width="3.46074287" height="6.75668847"></rect>
            <rect id="Rectangle" fill="#FFB7E3" x="50.4217786" y="95.2528277" width="3.46074287" height="6.75668847"></rect>
        </g>
    </g>
</svg>