<?xml version="1.0" encoding="UTF-8"?>
<svg width="118px" height="175px" viewBox="0 0 118 175" version="1.1" xmlns="http://www.w3.org/2000/svg" xmlns:xlink="http://www.w3.org/1999/xlink">
    <!-- Generator: Sketch 63.1 (92452) - https://sketch.com -->
    <title>K - Cropped</title>
    <desc>Created with Sketch.</desc>
    <defs>
        <path d="M37.5210042,0 C58.2432826,-3.80662079e-15 75.0420084,16.7987258 75.0420084,37.5210042 L75.0420084,88.4576821 C75.0420084,91.6507376 72.4535255,94.2392205 69.2604701,94.2392205 L5.78153839,94.2392205 C2.5884829,94.2392205 8.01086701e-15,91.6507376 0,88.4576821 L0,37.5210042 C-1.67486019e-14,16.7987258 16.7987258,3.80662079e-15 37.5210042,0 Z" id="path-1"></path>
        <rect id="path-3" x="0" y="0" width="77.2693143" height="47.274475" rx="22.9851757"></rect>
        <path d="M13.6466095,0.597963689 C11.4916307,-0.115578473 9.18524882,0.842950251 8.13421495,2.76665512 C7.43867902,3.72298585 6.42663738,4.61527103 5.00949386,4.92760866 L4.78075137,4.95330778 L4.78075137,4.95330778 L4.4658662,4.98356547 C1.95918197,5.24388324 0.115932726,7.46840901 0.336399266,9.98835309 C0.559092741,12.5337512 2.8030743,14.4166753 5.34847236,14.1939818 C10.9668796,13.7024348 15.0351544,11.1228494 16.5843317,6.44415714 C17.3874838,4.01854582 16.0722208,1.40111586 13.6466095,0.597963689 Z" id="path-5"></path>
    </defs>
    <g id="K---Cropped" stroke="none" stroke-width="1" fill="none" fill-rule="evenodd">
        <g id="Group-5" transform="translate(4.000000, 22.000000)">
            <rect id="L-upper-arm" fill="#C86902" transform="translate(85.557672, 105.356323) scale(-1, 1) rotate(-316.000000) translate(-85.557672, -105.356323) " x="76.1337501" y="80.9920369" width="18.8478441" height="48.7285725" rx="9.42392205"></rect>
            <rect id="L-upper-arm-Copy" fill="#C86902" transform="translate(24.557672, 105.356323) rotate(44.000000) translate(-24.557672, -105.356323) " x="15.1337501" y="80.9920369" width="18.8478441" height="48.7285725" rx="9.42392205"></rect>
            <rect id="R-upper-arm" fill="#C86902" opacity="0.317824591" transform="translate(24.477653, 105.356323) rotate(-316.000000) translate(-24.477653, -105.356323) " x="15.053731" y="80.9920369" width="18.8478441" height="48.7285725" rx="9.42392205"></rect>
            <path d="M34.6217514,125.652294 L75.0756607,125.652294 C77.0221295,125.652294 78.6000543,127.230219 78.6000543,129.176688 L78.6000543,178.211729 C78.6000543,180.158198 77.0221295,181.736123 75.0756607,181.736123 L34.6217514,181.736123 C32.6752826,181.736123 31.0973578,180.158198 31.0973578,178.211729 L31.0973578,129.176688 C31.0973578,127.230219 32.6752826,125.652294 34.6217514,125.652294 Z" id="B-pants" fill="#744007"></path>
            <rect id="B-hair" fill="#3D3D3D" transform="translate(42.779957, 22.713187) rotate(-270.000000) translate(-42.779957, -22.713187) " x="20.0667701" y="-6.24813489" width="45.426373" height="57.9226428" rx="22.7131865"></rect>
            <g id="Rectangle" transform="translate(17.459487, 76.770487)">
                <mask id="mask-2" fill="white">
                    <use xlink:href="#path-1"></use>
                </mask>
                <use id="body" fill="#FFFFFF" xlink:href="#path-1"></use>
                <circle id="collar" fill="#FFCBA3" mask="url(#mask-2)" cx="41.511227" cy="0.766172524" r="17.4687335"></circle>
                <rect id="L-coat" fill="#C86902" mask="url(#mask-2)" x="49.7858903" y="-3.0646901" width="44.8977099" height="100.368601"></rect>
                <rect id="R-coat" fill="#C86902" mask="url(#mask-2)" x="-20.7019819" y="-3.0646901" width="45.8171169" height="100.368601"></rect>
            </g>
            <g id="head" transform="translate(16.318379, 21.766148)">
                <mask id="mask-4" fill="white">
                    <use xlink:href="#path-3"></use>
                </mask>
                <use id="Mask" fill="#FFCBA3" xlink:href="#path-3"></use>
                <rect id="hair-shave" fill="#C4C4C4" opacity="0.689174107" mask="url(#mask-4)" x="55.2911257" y="-19.3343164" width="38.7683297" height="32.2114282" rx="8.25934055"></rect>
            </g>
            <path d="M46.1034101,26.8975461 C50.3196307,26.8975461 53.7375527,30.3154682 53.7375527,34.5316887 L53.7375527,39.2421172 C53.7375527,43.4583377 50.3196307,46.8762598 46.1034101,46.8762598 C41.8871896,46.8762598 38.4692675,43.4583377 38.4692675,39.2421172 L38.4692675,34.5316887 C38.4692675,30.3154682 41.8871896,26.8975461 46.1034101,26.8975461 Z" id="R-shadow" fill="#E99B5F"></path>
            <path d="M46.1034101,29.6588318 C50.3196307,29.6588318 53.7375527,33.0767538 53.7375527,37.2929744 L53.7375527,42.0034028 C53.7375527,46.2196233 50.3196307,49.6375454 46.1034101,49.6375454 C41.8871896,49.6375454 38.4692675,46.2196233 38.4692675,42.0034028 L38.4692675,37.2929744 C38.4692675,33.0767538 41.8871896,29.6588318 46.1034101,29.6588318 Z" id="R-eye" fill="#FFFFFF"></path>
            <path d="M48.2422414,34.2068316 C50.1411398,34.2068316 51.6805011,35.7461929 51.6805011,37.6450914 L51.6805011,41.9636041 C51.6805011,43.8625026 50.1411398,45.4018639 48.2422414,45.4018639 C46.3433429,45.4018639 44.8039816,43.8625026 44.8039816,41.9636041 L44.8039816,37.6450914 C44.8039816,35.7461929 46.3433429,34.2068316 48.2422414,34.2068316 Z" id="R-pupil" fill="#3D3D3D"></path>
            <path d="M45.4206594,37.9426886 C46.9008219,37.9426886 48.1007307,36.7427798 48.1007307,35.2626173 C48.1007307,33.7824548 46.9008219,32.5825459 45.4206594,32.5825459 C43.9404969,32.5825459 42.740588,33.7824548 42.740588,35.2626173 C42.740588,36.7427798 43.9404969,37.9426886 45.4206594,37.9426886 Z" id="R-highlight" fill="#FFFFFF"></path>
            <path d="M64.1034101,26.8975461 C68.3196307,26.8975461 71.7375527,30.3154682 71.7375527,34.5316887 L71.7375527,39.2421172 C71.7375527,43.4583377 68.3196307,46.8762598 64.1034101,46.8762598 C59.8871896,46.8762598 56.4692675,43.4583377 56.4692675,39.2421172 L56.4692675,34.5316887 C56.4692675,30.3154682 59.8871896,26.8975461 64.1034101,26.8975461 Z" id="L-shadow" fill="#E99B5F"></path>
            <path d="M64.1034101,29.6588318 C68.3196307,29.6588318 71.7375527,33.0767538 71.7375527,37.2929744 L71.7375527,42.0034028 C71.7375527,46.2196233 68.3196307,49.6375454 64.1034101,49.6375454 C59.8871896,49.6375454 56.4692675,46.2196233 56.4692675,42.0034028 L56.4692675,37.2929744 C56.4692675,33.0767538 59.8871896,29.6588318 64.1034101,29.6588318 Z" id="L-eye" fill="#FFFFFF"></path>
            <path d="M62.5296133,34.2083536 C64.4285117,34.2083536 65.967873,35.7477149 65.967873,37.6466133 L65.967873,41.9651261 C65.967873,43.8640245 64.4285117,45.4033859 62.5296133,45.4033859 C60.6307148,45.4033859 59.0913535,43.8640245 59.0913535,41.9651261 L59.0913535,37.6466133 C59.0913535,35.7477149 60.6307148,34.2083536 62.5296133,34.2083536 Z" id="L-pupil" fill="#3D3D3D"></path>
            <path d="M59.7080313,37.9442106 C61.1881938,37.9442106 62.3881026,36.7443018 62.3881026,35.2641393 C62.3881026,33.7839767 61.1881938,32.5840679 59.7080313,32.5840679 C58.2278688,32.5840679 57.0279599,33.7839767 57.0279599,35.2641393 C57.0279599,36.7443018 58.2278688,37.9442106 59.7080313,37.9442106 Z" id="L-highlight" fill="#FFFFFF"></path>
            <path d="M46.7738994,29.7274939 C50.6164197,29.7274939 53.731398,32.8424722 53.731398,36.6849925 L53.731398,38.0021572 L53.731398,38.0021572 L39.8164008,38.0021572 L39.8164008,36.6849925 C39.8164008,32.8424722 42.931379,29.7274939 46.7738994,29.7274939 Z" id="R-lid" fill="#E99B5F"></path>
            <path d="M64.1855775,29.0754322 C68.4305362,29.0754322 71.8717551,32.5166511 71.8717551,36.7616098 L71.8717551,38.0021572 L71.8717551,38.0021572 L56.4994,38.0021572 L56.4994,36.7616098 C56.4994,32.5166511 59.9406189,29.0754322 64.1855775,29.0754322 Z" id="L-lid" fill="#E99B5F"></path>
            <path d="M55.0544575,52.8822058 C56.8316681,52.8822058 58.2723821,51.4421675 58.2723821,49.6657903 C58.2723821,47.889413 55.0544575,43.6881355 55.0544575,43.6881355 C55.0544575,43.6881355 51.8365329,47.889413 51.8365329,49.6657903 C51.8365329,51.4421675 53.2772468,52.8822058 55.0544575,52.8822058 Z" id="nose" fill="#E99B5F"></path>
            <circle id="L-ear" fill="#FFCBA3" cx="95.134057" cy="44.4839788" r="6.74231821"></circle>
            <circle id="R-ear" fill="#FFCBA3" cx="14.2262385" cy="44.4839788" r="6.74231821"></circle>
            <path d="M72.0694747,44.8359764 C71.2584056,44.8359764 63.1719076,46.1824238 60.0041952,48.5273565 C57.892387,50.0906451 59.9661061,50.4469589 66.2253527,49.5962982 L75.141449,48.5273565 C73.6341788,46.0664364 72.6101873,44.8359764 72.0694747,44.8359764 Z" id="L-cheek" fill="#FFCBA3"></path>
            <circle id="R-earring" fill="#C86902" cx="14.992411" cy="51.6400281" r="3.2179246"></circle>
            <polygon id="F-pants" fill="#744007" points="42.4827073 110.328843 67.3066971 110.328843 67.3066971 172.848521 42.4827073 172.848521"></polygon>
            <polygon id="neck" fill="#FFCBA3" points="42.6271818 64.3684585 67.2392515 64.3684585 67.2392515 78.9257364 42.6271818 78.9257364"></polygon>
            <polygon id="V-pants-line" fill="#613404" points="54.4169492 135 56.3694915 135 56.3694915 181.736123 54.4169492 181.736123"></polygon>
            <path d="M55.3932203,130.583051 C55.9324,130.583051 56.3694915,131.020142 56.3694915,131.559322 L56.3694915,138.39322 C56.3694915,138.9324 55.9324,139.369492 55.3932203,139.369492 C54.8540407,139.369492 54.4169492,138.9324 54.4169492,138.39322 L54.4169492,131.559322 C54.4169492,131.020142 54.8540407,130.583051 55.3932203,130.583051 Z" id="H-pants-line" fill="#613404" transform="translate(55.393220, 134.976271) rotate(-270.000000) translate(-55.393220, -134.976271) "></path>
            <rect id="L-hand" fill="#FFCBA3" transform="translate(84.366169, 128.905320) rotate(-30.000000) translate(-84.366169, -128.905320) " x="74.4825439" y="119.481398" width="19.7672511" height="18.8478441" rx="9.42392205"></rect>
            <path d="M25.7297039,119.447915 L26.649111,119.447915 C31.8537994,119.447915 36.073033,123.667149 36.073033,128.871837 C36.073033,134.076525 31.8537994,138.295759 26.649111,138.295759 L25.7297039,138.295759 C20.5250155,138.295759 16.3057819,134.076525 16.3057819,128.871837 C16.3057819,123.667149 20.5250155,119.447915 25.7297039,119.447915 Z" id="R-hand" fill="#FFCBA3" transform="translate(26.189407, 128.871837) rotate(30.000000) translate(-26.189407, -128.871837) "></path>
            <path d="M85.0790425,106.377918 L103.926887,106.377918 L103.926887,121.011813 C103.926887,126.216502 99.7076529,130.435735 94.5029645,130.435735 C89.2982761,130.435735 85.0790425,126.216502 85.0790425,121.011813 L85.0790425,106.377918 L85.0790425,106.377918 Z" id="L-sleeve" fill="#C86902" transform="translate(94.502965, 118.406827) scale(-1, -1) rotate(-317.000000) translate(-94.502965, -118.406827) "></path>
            <path d="M16.0526124,106.377918 C21.2573009,106.377918 25.4765345,110.597152 25.4765345,115.80184 L25.4765345,130.435735 L25.4765345,130.435735 L6.62869037,130.435735 L6.62869037,115.80184 C6.62869037,110.597152 10.847924,106.377918 16.0526124,106.377918 Z" id="R-sleeve" fill="#C86902" transform="translate(16.052612, 118.406827) rotate(-43.000000) translate(-16.052612, -118.406827) "></path>
            <path d="M65.6211175,131.56256 L89.2511017,129.454367 L91.5839509,134.237416 C93.2534035,137.660301 91.8319656,141.788457 88.4090805,143.457909 C88.2392668,143.540733 88.0661209,143.616542 87.890081,143.685146 L80.0634825,146.735197 C76.719601,148.038319 72.9352265,146.558706 71.3619889,143.33309 L65.6211175,131.56256 L65.6211175,131.56256 Z" id="L-pocket" fill="#B45E00" transform="translate(80.243557, 139.247805) rotate(26.000000) translate(-80.243557, -139.247805) "></path>
            <path d="M17.9355069,140.107429 L34.1448567,122.78468 L39.8916796,134.567413 C41.4624415,137.787953 40.3048453,141.674892 37.2280372,143.511307 L30.0139095,147.81711 C26.7437862,149.768906 22.5105841,148.70019 20.558788,145.430067 C20.4594437,145.263621 20.3671618,145.09306 20.2821884,144.918839 L17.9355069,140.107429 L17.9355069,140.107429 Z" id="R-pocket" fill="#B45E00" transform="translate(30.302644, 137.223564) rotate(26.000000) translate(-30.302644, -137.223564) "></path>
            <rect id="L-thumb" fill="#FFCBA3" transform="translate(76.783870, 126.835781) rotate(-36.000000) translate(-76.783870, -126.835781) " x="71.1908105" y="123.541239" width="11.1861189" height="6.58908371" rx="3.29454185"></rect>
            <path d="M31.4731894,123.541239 L36.0702246,123.541239 C37.8897498,123.541239 39.3647664,125.016255 39.3647664,126.835781 C39.3647664,128.655306 37.8897498,130.130322 36.0702246,130.130322 L31.4731894,130.130322 C29.6536642,130.130322 28.1786476,128.655306 28.1786476,126.835781 C28.1786476,125.016255 29.6536642,123.541239 31.4731894,123.541239 Z" id="R-thumb" fill="#FFCBA3" transform="translate(33.771707, 126.835781) rotate(36.000000) translate(-33.771707, -126.835781) "></path>
            <rect id="F-hair" fill="#3D3D3D" transform="translate(30.363367, 25.046184) rotate(-270.000000) translate(-30.363367, -25.046184) " x="12.7413994" y="8.19038836" width="35.2439361" height="33.7115911" rx="16.8557955"></rect>
            <g id="tongue-+-teeth-Mask" transform="translate(54.472313, 50.389377)">
                <mask id="mask-6" fill="white">
                    <use xlink:href="#path-5"></use>
                </mask>
                <use id="Mask" fill="#B23232" fill-rule="nonzero" xlink:href="#path-5"></use>
                <path d="M2.36844239,25.9974091 C6.9902055,25.9974091 10.7368848,22.2507298 10.7368848,17.6289667 C10.7368848,13.0072036 6.9902055,9.26052434 2.36844239,9.26052434 C-2.25332072,9.26052434 -6,13.0072036 -6,17.6289667 C-6,22.2507298 -2.25332072,25.9974091 2.36844239,25.9974091 Z" id="tongue" fill="#F14C4C" mask="url(#mask-6)"></path>
                <path d="M-0.392648191,0 L15.0864887,0 C16.4391998,-2.48489008e-16 17.5357889,1.09658906 17.5357889,2.44930021 L17.5357889,3.12966138 C17.5357889,4.48237253 16.4391998,5.57896159 15.0864887,5.57896159 L2.05665202,5.57896159 C0.703940866,5.57896159 -0.392648191,4.48237253 -0.392648191,3.12966138 L-0.392648191,0 L-0.392648191,0 Z" id="teeth" fill="#FFFFFF" mask="url(#mask-6)"></path>
            </g>
        </g>
    </g>
</svg>