<?xml version="1.0" encoding="UTF-8"?>
<svg width="118px" height="175px" viewBox="0 0 118 175" version="1.1" xmlns="http://www.w3.org/2000/svg" xmlns:xlink="http://www.w3.org/1999/xlink">
    <!-- Generator: Sketch 63.1 (92452) - https://sketch.com -->
    <title>Mo - Cropped</title>
    <desc>Created with Sketch.</desc>
    <defs>
        <path d="M37.6914844,0 C58.4129062,-3.80646343e-15 75.2109375,16.7980313 75.2109375,37.5194531 L75.2109375,97.2907031 C75.2109375,118.012125 58.4129062,134.810156 37.6914844,134.810156 C16.9700626,134.810156 0.17203125,118.012125 0.17203125,97.2907031 L0.17203125,37.5194531 C0.17203125,16.7980313 16.9700626,3.80646343e-15 37.6914844,0 Z" id="path-1"></path>
    </defs>
    <g id="Mo---Cropped" stroke="none" stroke-width="1" fill="none" fill-rule="evenodd">
        <path d="M22.8775205,126.922114 L50.642881,125.959863 C56.1624148,125.768575 60.7919505,130.087972 60.9832383,135.607506 C61.0036862,136.19752 60.9718451,136.788187 60.8880882,137.372585 L57.7095482,159.550216 C57.131905,163.580607 54.1683398,166.858356 50.2163328,167.837828 L24.4053845,174.234858 C19.0447242,175.563453 13.6220111,172.294819 12.2934159,166.934158 C12.0626798,166.003176 11.9670827,165.043841 12.0095625,164.085634 L13.2336903,136.473224 C13.4647463,131.261339 17.6636466,127.102809 22.8775205,126.922114 Z" id="arm-R" fill="#FFAADE" transform="translate(37.000000, 151.500000) rotate(32.000000) translate(-37.000000, -151.500000) "></path>
        <path d="M66.8775205,126.922114 L94.642881,125.959863 C100.162415,125.768575 104.79195,130.087972 104.983238,135.607506 C105.003686,136.19752 104.971845,136.788187 104.888088,137.372585 L101.709548,159.550216 C101.131905,163.580607 98.1683398,166.858356 94.2163328,167.837828 L68.4053845,174.234858 C63.0447242,175.563453 57.6220111,172.294819 56.2934159,166.934158 C56.0626798,166.003176 55.9670827,165.043841 56.0095625,164.085634 L57.2336903,136.473224 C57.4647463,131.261339 61.6636466,127.102809 66.8775205,126.922114 Z" id="arm-L" fill="#FFAADE" transform="translate(81.000000, 151.500000) scale(-1, 1) rotate(32.000000) translate(-81.000000, -151.500000) "></path>
        <path d="M50.6654036,40 C60.9415812,40 69.5727876,47.0429593 71.9953273,56.5651824 L71.967102,56.4928572 C73.6781969,61.1514228 77.4274531,63.3011291 83.0980177,63.3886783 L83.4625767,63.3914702 C83.5634461,63.3914702 83.6607532,63.3930107 83.754498,63.3960915 L83.9274896,63.3917387 L84.2497045,63.38875 C93.6145732,63.38875 101.206299,70.9515 101.206299,80.280625 C101.206299,89.60975 93.6145732,97.1725 84.2497045,97.1725 C79.7744445,97.1725 75.7041115,95.4454182 72.6736958,92.6238211 L72.6735677,94.6549609 C72.6735677,106.688187 63.0162595,116.465827 51.0293488,116.660177 L50.4967587,116.663125 C38.9892185,116.663125 29.5444925,107.831167 28.5712719,96.5759436 C21.3817631,94.6180238 16.0972368,88.0641025 16.0972368,80.280625 C16.0972368,72.5271145 21.3411498,65.9937107 28.4886433,64.0079967 L28.4885946,62.0081641 C28.4885946,49.9749384 38.1459028,40.197298 50.1328134,40.0029485 L50.6654036,40 Z" id="hair-B" fill="#3D3D3D"></path>
        <circle id="ear-R" fill="#DA8E74" cx="20.3202056" cy="94.2489062" r="6.17203125"></circle>
        <circle id="ear-L" fill="#DA8E74" cx="96.9833306" cy="94.2489062" r="6.17203125"></circle>
        <g id="hair-R-+-hair-L-Mask" transform="translate(21.122706, 65.987500)">
            <mask id="mask-2" fill="white">
                <use xlink:href="#path-1"></use>
            </mask>
            <use id="Mask" fill="#DA8E74" xlink:href="#path-1"></use>
            <rect id="hair-R" fill="#3D3D3D" mask="url(#mask-2)" x="-6" y="0" width="18.3536719" height="29.0735156" rx="9.17683594"></rect>
            <rect id="hair-L" fill="#3D3D3D" mask="url(#mask-2)" x="63.3541406" y="1.62421875" width="18.3536719" height="26.4747656" rx="9.17683594"></rect>
            <rect id="pants" fill="#2BE69C" mask="url(#mask-2)" x="-1.12734375" y="89.8192969" width="78.1249219" height="47.1023438"></rect>
            <polygon id="belt" fill="#A56644" mask="url(#mask-2)" points="0.17203125 87.058125 75.2109375 87.058125 75.2109375 95.5040625 0.17203125 95.5040625"></polygon>
            <rect id="belt-loop-R" fill="#2BE69C" mask="url(#mask-2)" x="13.3282031" y="87.058125" width="5.35992188" height="12.3440625"></rect>
            <rect id="belt-loop-L" fill="#2BE69C" mask="url(#mask-2)" x="56.3666157" y="87.058125" width="5.35992188" height="12.3440625"></rect>
        </g>
        <polygon id="shirt" fill="#FFAADE" points="21.2913526 130.654115 96.3302588 130.654115 96.3302588 153.068334 21.2913526 153.068334"></polygon>
        <polygon id="chest" fill="#DA8E74" transform="translate(58.892017, 136.582514) scale(1, -1) translate(-58.892017, -136.582514) " points="58.8920167 130.329272 69.5306495 142.835756 48.2533838 142.835756"></polygon>
        <path d="M49.7429178,77.681875 C53.9724143,77.681875 57.4010987,81.1105594 57.4010987,85.3400559 L57.4010987,89.9983209 C57.4010987,94.2278174 53.9724143,97.6565018 49.7429178,97.6565018 C45.5134212,97.6565018 42.0847368,94.2278174 42.0847368,89.9983209 L42.0847368,85.3400559 C42.0847368,81.1105594 45.5134212,77.681875 49.7429178,77.681875 Z" id="eye-white-R" fill="#FFFFFF"></path>
        <path d="M51.8573081,82.2296875 C53.7561283,82.2296875 55.2954262,83.7689854 55.2954262,85.6678056 L55.2954262,89.9861405 C55.2954262,91.8849607 53.7561283,93.4242586 51.8573081,93.4242586 C49.9584879,93.4242586 48.41919,91.8849607 48.41919,89.9861405 L48.41919,85.6678056 C48.41919,83.7689854 49.9584879,82.2296875 51.8573081,82.2296875 Z" id="pupil-R" fill="#3D3D3D"></path>
        <path d="M68.0960598,77.681875 C72.3255564,77.681875 75.7542408,81.1105594 75.7542408,85.3400559 L75.7542408,89.9983209 C75.7542408,94.2278174 72.3255564,97.6565018 68.0960598,97.6565018 C63.8665633,97.6565018 60.4378789,94.2278174 60.4378789,89.9983209 L60.4378789,85.3400559 C60.4378789,81.1105594 63.8665633,77.681875 68.0960598,77.681875 Z" id="eye-white-L" fill="#FFFFFF"></path>
        <path d="M66.4689352,82.2296875 C68.3677554,82.2296875 69.9070533,83.7689854 69.9070533,85.6678056 L69.9070533,89.9861405 C69.9070533,91.8849607 68.3677554,93.4242586 66.4689352,93.4242586 C64.570115,93.4242586 63.030817,91.8849607 63.030817,89.9861405 L63.030817,85.6678056 C63.030817,83.7689854 64.570115,82.2296875 66.4689352,82.2296875 Z" id="pupil-L" fill="#3D3D3D"></path>
        <polygon id="skin" fill="#DA8E74" points="37 77 80.879375 77 80.879375 88.0446875 37 88.0446875"></polygon>
        <rect id="mustache-R" fill="#3D3D3D" transform="translate(49.846571, 109.667518) scale(-1, 1) rotate(-60.000000) translate(-49.846571, -109.667518) " x="39.7764148" y="95.2119712" width="20.1403125" height="28.9110937" rx="10.0701563"></rect>
        <rect id="mustache-M" fill="#3D3D3D" x="45.3331743" y="106.268125" width="27.9365625" height="13.6434375"></rect>
        <path d="M52.067525,120.026872 C57.4836461,116.684314 61.6250346,117.93454 65.3656611,120.026872 C67.8594121,121.421759 67.0387137,124.198635 62.9035659,128.3575 L54.6511784,128.3575 C49.3179954,125.032119 48.4567776,122.255243 52.067525,120.026872 Z" id="chin" fill="#DA8E74"></path>
        <rect id="mustache-L" fill="#3D3D3D" transform="translate(67.284484, 109.667518) rotate(-60.000000) translate(-67.284484, -109.667518) " x="57.2143277" y="95.2119712" width="20.1403125" height="28.9110937" rx="10.0701563"></rect>
        <path d="M61.5753618,80.9303125 L73.9194243,80.9303125 C76.0722993,80.9303125 77.8175493,82.6755625 77.8175493,84.8284375 C77.8175493,86.9813125 76.0722993,88.7265625 73.9194243,88.7265625 L61.5753618,88.7265625 C59.4224869,88.7265625 57.6772368,86.9813125 57.6772368,84.8284375 C57.6772368,82.6755625 59.4224869,80.9303125 61.5753618,80.9303125 Z" id="brow-L" fill="#3D3D3D"></path>
        <path d="M43.3841118,73.1340625 L55.7281743,73.1340625 C57.8810493,73.1340625 59.6262993,74.8793125 59.6262993,77.0321875 C59.6262993,79.1850625 57.8810493,80.9303125 55.7281743,80.9303125 L43.3841118,80.9303125 C41.2312369,80.9303125 39.4859868,79.1850625 39.4859868,77.0321875 C39.4859868,74.8793125 41.2312369,73.1340625 43.3841118,73.1340625 Z" id="brow-R" fill="#3D3D3D"></path>
        <circle id="nose" fill="#DA8E74" cx="58.6517681" cy="96.8476563" r="4.87265625"></circle>
    </g>
</svg>